<svg width="656" height="98" viewBox="0 0 656 98" fill="none" xmlns="http://www.w3.org/2000/svg">
<path d="M15.875 41.25V96H0.8125V28.375H15.1875L15.875 41.25ZM36.5625 27.9375L36.4375 41.9375C35.5208 41.7708 34.5208 41.6458 33.4375 41.5625C32.3958 41.4792 31.3542 41.4375 30.3125 41.4375C27.7292 41.4375 25.4583 41.8125 23.5 42.5625C21.5417 43.2708 19.8958 44.3125 18.5625 45.6875C17.2708 47.0208 16.2708 48.6458 15.5625 50.5625C14.8542 52.4792 14.4375 54.625 14.3125 57L10.875 57.25C10.875 53 11.2917 49.0625 12.125 45.4375C12.9583 41.8125 14.2083 38.625 15.875 35.875C17.5833 33.125 19.7083 30.9792 22.25 29.4375C24.8333 27.8958 27.8125 27.125 31.1875 27.125C32.1042 27.125 33.0833 27.2083 34.125 27.375C35.2083 27.5417 36.0208 27.7292 36.5625 27.9375ZM41.5 62.9375V61.5C41.5 56.625 42.2083 52.1042 43.625 47.9375C45.0417 43.7292 47.0833 40.0833 49.75 37C52.4583 33.875 55.75 31.4583 59.625 29.75C63.5417 28 67.9583 27.125 72.875 27.125C77.8333 27.125 82.25 28 86.125 29.75C90.0417 31.4583 93.3542 33.875 96.0625 37C98.7708 40.0833 100.833 43.7292 102.25 47.9375C103.667 52.1042 104.375 56.625 104.375 61.5V62.9375C104.375 67.8125 103.667 72.3333 102.25 76.5C100.833 80.6667 98.7708 84.3125 96.0625 87.4375C93.3542 90.5208 90.0625 92.9375 86.1875 94.6875C82.3125 96.3958 77.9167 97.25 73 97.25C68.0417 97.25 63.6042 96.3958 59.6875 94.6875C55.8125 92.9375 52.5208 90.5208 49.8125 87.4375C47.1042 84.3125 45.0417 80.6667 43.625 76.5C42.2083 72.3333 41.5 67.8125 41.5 62.9375ZM56.5625 61.5V62.9375C56.5625 65.9792 56.875 68.8542 57.5 71.5625C58.125 74.2708 59.1042 76.6458 60.4375 78.6875C61.7708 80.7292 63.4792 82.3333 65.5625 83.5C67.6458 84.6667 70.125 85.25 73 85.25C75.7917 85.25 78.2083 84.6667 80.25 83.5C82.3333 82.3333 84.0417 80.7292 85.375 78.6875C86.7083 76.6458 87.6875 74.2708 88.3125 71.5625C88.9792 68.8542 89.3125 65.9792 89.3125 62.9375V61.5C89.3125 58.5 88.9792 55.6667 88.3125 53C87.6875 50.2917 86.6875 47.8958 85.3125 45.8125C83.9792 43.7292 82.2708 42.1042 80.1875 40.9375C78.1458 39.7292 75.7083 39.125 72.875 39.125C70.0417 39.125 67.5833 39.7292 65.5 40.9375C63.4583 42.1042 61.7708 43.7292 60.4375 45.8125C59.1042 47.8958 58.125 50.2917 57.5 53C56.875 55.6667 56.5625 58.5 56.5625 61.5ZM114.125 62.9375V61.5C114.125 56.625 114.833 52.1042 116.25 47.9375C117.667 43.7292 119.708 40.0833 122.375 37C125.083 33.875 128.375 31.4583 132.25 29.75C136.167 28 140.583 27.125 145.5 27.125C150.458 27.125 154.875 28 158.75 29.75C162.667 31.4583 165.979 33.875 168.688 37C171.396 40.0833 173.458 43.7292 174.875 47.9375C176.292 52.1042 177 56.625 177 61.5V62.9375C177 67.8125 176.292 72.3333 174.875 76.5C173.458 80.6667 171.396 84.3125 168.688 87.4375C165.979 90.5208 162.688 92.9375 158.812 94.6875C154.938 96.3958 150.542 97.25 145.625 97.25C140.667 97.25 136.229 96.3958 132.312 94.6875C128.438 92.9375 125.146 90.5208 122.438 87.4375C119.729 84.3125 117.667 80.6667 116.25 76.5C114.833 72.3333 114.125 67.8125 114.125 62.9375ZM129.188 61.5V62.9375C129.188 65.9792 129.5 68.8542 130.125 71.5625C130.75 74.2708 131.729 76.6458 133.062 78.6875C134.396 80.7292 136.104 82.3333 138.188 83.5C140.271 84.6667 142.75 85.25 145.625 85.25C148.417 85.25 150.833 84.6667 152.875 83.5C154.958 82.3333 156.667 80.7292 158 78.6875C159.333 76.6458 160.312 74.2708 160.938 71.5625C161.604 68.8542 161.938 65.9792 161.938 62.9375V61.5C161.938 58.5 161.604 55.6667 160.938 53C160.312 50.2917 159.312 47.8958 157.938 45.8125C156.604 43.7292 154.896 42.1042 152.812 40.9375C150.771 39.7292 148.333 39.125 145.5 39.125C142.667 39.125 140.208 39.7292 138.125 40.9375C136.083 42.1042 134.396 43.7292 133.062 45.8125C131.729 47.8958 130.75 50.2917 130.125 53C129.5 55.6667 129.188 58.5 129.188 61.5ZM189.688 0H204.75V81.5625L203.312 96H189.688V0ZM248.875 61.5625V62.875C248.875 67.875 248.312 72.4792 247.188 76.6875C246.104 80.8542 244.438 84.4792 242.188 87.5625C239.979 90.6458 237.229 93.0417 233.938 94.75C230.688 96.4167 226.917 97.25 222.625 97.25C218.417 97.25 214.75 96.4583 211.625 94.875C208.5 93.2917 205.875 91.0417 203.75 88.125C201.667 85.2083 199.979 81.7292 198.688 77.6875C197.396 73.6458 196.479 69.1875 195.938 64.3125V60.125C196.479 55.2083 197.396 50.75 198.688 46.75C199.979 42.7083 201.667 39.2292 203.75 36.3125C205.875 33.3542 208.479 31.0833 211.562 29.5C214.688 27.9167 218.333 27.125 222.5 27.125C226.833 27.125 230.646 27.9583 233.938 29.625C237.271 31.2917 240.042 33.6667 242.25 36.75C244.458 39.7917 246.104 43.4167 247.188 47.625C248.312 51.8333 248.875 56.4792 248.875 61.5625ZM233.812 62.875V61.5625C233.812 58.5208 233.562 55.6667 233.062 53C232.562 50.2917 231.729 47.9167 230.562 45.875C229.438 43.8333 227.896 42.2292 225.938 41.0625C224.021 39.8542 221.625 39.25 218.75 39.25C216.083 39.25 213.792 39.7083 211.875 40.625C209.958 41.5417 208.354 42.7917 207.062 44.375C205.771 45.9583 204.75 47.7917 204 49.875C203.292 51.9583 202.812 54.2083 202.562 56.625V67.9375C202.938 71.0625 203.729 73.9375 204.938 76.5625C206.188 79.1458 207.938 81.2292 210.188 82.8125C212.438 84.3542 215.333 85.125 218.875 85.125C221.667 85.125 224.021 84.5625 225.938 83.4375C227.854 82.3125 229.375 80.75 230.5 78.75C231.667 76.7083 232.5 74.3333 233 71.625C233.542 68.9167 233.812 66 233.812 62.875ZM291.438 97.25C286.438 97.25 281.917 96.4375 277.875 94.8125C273.875 93.1458 270.458 90.8333 267.625 87.875C264.833 84.9167 262.688 81.4375 261.188 77.4375C259.688 73.4375 258.938 69.125 258.938 64.5V62C258.938 56.7083 259.708 51.9167 261.25 47.625C262.792 43.3333 264.938 39.6667 267.688 36.625C270.438 33.5417 273.688 31.1875 277.438 29.5625C281.188 27.9375 285.25 27.125 289.625 27.125C294.458 27.125 298.688 27.9375 302.312 29.5625C305.938 31.1875 308.938 33.4792 311.312 36.4375C313.729 39.3542 315.521 42.8333 316.688 46.875C317.896 50.9167 318.5 55.375 318.5 60.25V66.6875H266.25V55.875H303.625V54.6875C303.542 51.9792 303 49.4375 302 47.0625C301.042 44.6875 299.562 42.7708 297.562 41.3125C295.562 39.8542 292.896 39.125 289.562 39.125C287.062 39.125 284.833 39.6667 282.875 40.75C280.958 41.7917 279.354 43.3125 278.062 45.3125C276.771 47.3125 275.771 49.7292 275.062 52.5625C274.396 55.3542 274.062 58.5 274.062 62V64.5C274.062 67.4583 274.458 70.2083 275.25 72.75C276.083 75.25 277.292 77.4375 278.875 79.3125C280.458 81.1875 282.375 82.6667 284.625 83.75C286.875 84.7917 289.438 85.3125 292.312 85.3125C295.938 85.3125 299.167 84.5833 302 83.125C304.833 81.6667 307.292 79.6042 309.375 76.9375L317.312 84.625C315.854 86.75 313.958 88.7917 311.625 90.75C309.292 92.6667 306.438 94.2292 303.062 95.4375C299.729 96.6458 295.854 97.25 291.438 97.25ZM345.188 42.8125V96H330.125V28.375H344.312L345.188 42.8125ZM342.5 59.6875L337.625 59.625C337.667 54.8333 338.333 50.4375 339.625 46.4375C340.958 42.4375 342.792 39 345.125 36.125C347.5 33.25 350.333 31.0417 353.625 29.5C356.917 27.9167 360.583 27.125 364.625 27.125C367.875 27.125 370.812 27.5833 373.438 28.5C376.104 29.375 378.375 30.8125 380.25 32.8125C382.167 34.8125 383.625 37.4167 384.625 40.625C385.625 43.7917 386.125 47.6875 386.125 52.3125V96H371V52.25C371 49 370.521 46.4375 369.562 44.5625C368.646 42.6458 367.292 41.2917 365.5 40.5C363.75 39.6667 361.562 39.25 358.938 39.25C356.354 39.25 354.042 39.7917 352 40.875C349.958 41.9583 348.229 43.4375 346.812 45.3125C345.438 47.1875 344.375 49.3542 343.625 51.8125C342.875 54.2708 342.5 56.8958 342.5 59.6875ZM419.875 81L435.5 28.375H445.125L442.5 44.125L426.75 96H418.125L419.875 81ZM410.688 28.375L422.875 81.25L423.875 96H414.25L395.938 28.375H410.688ZM459.75 80.625L471.562 28.375H486.25L468 96H458.375L459.75 80.625ZM446.75 28.375L462.188 80.375L464.125 96H455.5L439.562 44.0625L436.938 28.375H446.75ZM526.312 97.25C521.312 97.25 516.792 96.4375 512.75 94.8125C508.75 93.1458 505.333 90.8333 502.5 87.875C499.708 84.9167 497.562 81.4375 496.062 77.4375C494.562 73.4375 493.812 69.125 493.812 64.5V62C493.812 56.7083 494.583 51.9167 496.125 47.625C497.667 43.3333 499.812 39.6667 502.562 36.625C505.312 33.5417 508.562 31.1875 512.312 29.5625C516.062 27.9375 520.125 27.125 524.5 27.125C529.333 27.125 533.562 27.9375 537.188 29.5625C540.812 31.1875 543.812 33.4792 546.188 36.4375C548.604 39.3542 550.396 42.8333 551.562 46.875C552.771 50.9167 553.375 55.375 553.375 60.25V66.6875H501.125V55.875H538.5V54.6875C538.417 51.9792 537.875 49.4375 536.875 47.0625C535.917 44.6875 534.438 42.7708 532.438 41.3125C530.438 39.8542 527.771 39.125 524.438 39.125C521.938 39.125 519.708 39.6667 517.75 40.75C515.833 41.7917 514.229 43.3125 512.938 45.3125C511.646 47.3125 510.646 49.7292 509.938 52.5625C509.271 55.3542 508.938 58.5 508.938 62V64.5C508.938 67.4583 509.333 70.2083 510.125 72.75C510.958 75.25 512.167 77.4375 513.75 79.3125C515.333 81.1875 517.25 82.6667 519.5 83.75C521.75 84.7917 524.312 85.3125 527.188 85.3125C530.812 85.3125 534.042 84.5833 536.875 83.125C539.708 81.6667 542.167 79.6042 544.25 76.9375L552.188 84.625C550.729 86.75 548.833 88.7917 546.5 90.75C544.167 92.6667 541.312 94.2292 537.938 95.4375C534.604 96.6458 530.729 97.25 526.312 97.25ZM565.188 0H580.25V81.5625L578.812 96H565.188V0ZM624.375 61.5625V62.875C624.375 67.875 623.812 72.4792 622.688 76.6875C621.604 80.8542 619.938 84.4792 617.688 87.5625C615.479 90.6458 612.729 93.0417 609.438 94.75C606.188 96.4167 602.417 97.25 598.125 97.25C593.917 97.25 590.25 96.4583 587.125 94.875C584 93.2917 581.375 91.0417 579.25 88.125C577.167 85.2083 575.479 81.7292 574.188 77.6875C572.896 73.6458 571.979 69.1875 571.438 64.3125V60.125C571.979 55.2083 572.896 50.75 574.188 46.75C575.479 42.7083 577.167 39.2292 579.25 36.3125C581.375 33.3542 583.979 31.0833 587.062 29.5C590.188 27.9167 593.833 27.125 598 27.125C602.333 27.125 606.146 27.9583 609.438 29.625C612.771 31.2917 615.542 33.6667 617.75 36.75C619.958 39.7917 621.604 43.4167 622.688 47.625C623.812 51.8333 624.375 56.4792 624.375 61.5625ZM609.312 62.875V61.5625C609.312 58.5208 609.062 55.6667 608.562 53C608.062 50.2917 607.229 47.9167 606.062 45.875C604.938 43.8333 603.396 42.2292 601.438 41.0625C599.521 39.8542 597.125 39.25 594.25 39.25C591.583 39.25 589.292 39.7083 587.375 40.625C585.458 41.5417 583.854 42.7917 582.562 44.375C581.271 45.9583 580.25 47.7917 579.5 49.875C578.792 51.9583 578.312 54.2083 578.062 56.625V67.9375C578.438 71.0625 579.229 73.9375 580.438 76.5625C581.688 79.1458 583.438 81.2292 585.688 82.8125C587.938 84.3542 590.833 85.125 594.375 85.125C597.167 85.125 599.521 84.5625 601.438 83.4375C603.354 82.3125 604.875 80.75 606 78.75C607.167 76.7083 608 74.3333 608.5 71.625C609.042 68.9167 609.312 66 609.312 62.875ZM637.75 88.5C637.75 86.1667 638.542 84.2083 640.125 82.625C641.708 81 643.854 80.1875 646.562 80.1875C649.312 80.1875 651.458 81 653 82.625C654.583 84.2083 655.375 86.1667 655.375 88.5C655.375 90.8333 654.583 92.7917 653 94.375C651.458 95.9583 649.312 96.75 646.562 96.75C643.854 96.75 641.708 95.9583 640.125 94.375C638.542 92.7917 637.75 90.8333 637.75 88.5Z" fill="white"/>
</svg>
